<svg width="20" height="27" viewBox="0 0 20 27" fill="none" xmlns="http://www.w3.org/2000/svg">
<path d="M6.66667 0C8.51111 0 10.2444 0.350222 11.8667 1.05067C13.4889 1.75111 14.9 2.70089 16.1 3.9C17.3 5.1 18.2502 6.51111 18.9507 8.13333C19.6511 9.75556 20.0009 11.4889 20 13.3333C20 15.1778 19.6498 16.9111 18.9493 18.5333C18.2489 20.1556 17.2991 21.5667 16.1 22.7667C14.9 23.9667 13.4889 24.9169 11.8667 25.6173C10.2444 26.3178 8.51111 26.6676 6.66667 26.6667C5.48889 26.6667 4.33867 26.5169 3.216 26.2173C2.09333 25.9178 1.02133 25.4676 0 24.8667C2.06667 23.6667 3.69467 22.0444 4.884 20C6.07333 17.9556 6.66756 15.7333 6.66667 13.3333C6.66667 10.9333 6.072 8.71111 4.88267 6.66667C3.69333 4.62222 2.06578 3 0 1.8C1.02222 1.2 2.09467 0.750222 3.21733 0.450667C4.34 0.151111 5.48978 0.000888889 6.66667 0Z" fill="#162E4D"/>
</svg>
