<svg width="35" height="35" viewBox="0 0 35 35" fill="none" xmlns="http://www.w3.org/2000/svg">
<path d="M14.6667 4C16.5111 4 18.2444 4.35022 19.8667 5.05067C21.4889 5.75111 22.9 6.70089 24.1 7.9C25.3 9.1 26.2502 10.5111 26.9507 12.1333C27.6511 13.7556 28.0009 15.4889 28 17.3333C28 19.1778 27.6498 20.9111 26.9493 22.5333C26.2489 24.1556 25.2991 25.5667 24.1 26.7667C22.9 27.9667 21.4889 28.9169 19.8667 29.6173C18.2444 30.3178 16.5111 30.6676 14.6667 30.6667C13.4889 30.6667 12.3387 30.5169 11.216 30.2173C10.0933 29.9178 9.02133 29.4676 8 28.8667C10.0667 27.6667 11.6947 26.0444 12.884 24C14.0733 21.9556 14.6676 19.7333 14.6667 17.3333C14.6667 14.9333 14.072 12.7111 12.8827 10.6667C11.6933 8.62222 10.0658 7 8 5.8C9.02222 5.2 10.0947 4.75022 11.2173 4.45067C12.34 4.15111 13.4898 4.00089 14.6667 4Z" fill="#162E4D"/>
</svg>
