<svg width="25" height="25" viewBox="0 0 25 25" fill="none" xmlns="http://www.w3.org/2000/svg">
<path d="M11.3636 4.54545V0H13.6364V4.54545H11.3636ZM18.9205 7.67045L17.358 6.10795L20.5398 2.84091L22.1307 4.46023L18.9205 7.67045ZM20.4545 13.6364V11.3636H25V13.6364H20.4545ZM11.3636 25V20.4545H13.6364V25H11.3636ZM6.07955 7.61364L2.84091 4.46023L4.46023 2.86932L7.67045 6.07955L6.07955 7.61364ZM20.5114 22.1591L17.358 18.892L18.892 17.358L22.1307 20.483L20.5114 22.1591ZM0 13.6364V11.3636H4.54545V13.6364H0ZM4.46023 22.1591L2.86932 20.5398L6.05114 17.358L6.875 18.125L7.69886 18.9205L4.46023 22.1591ZM12.5 19.3182C10.6061 19.3182 8.99621 18.6553 7.67045 17.3295C6.3447 16.0038 5.68182 14.3939 5.68182 12.5C5.68182 10.6061 6.3447 8.99621 7.67045 7.67045C8.99621 6.3447 10.6061 5.68182 12.5 5.68182C14.3939 5.68182 16.0038 6.3447 17.3295 7.67045C18.6553 8.99621 19.3182 10.6061 19.3182 12.5C19.3182 14.3939 18.6553 16.0038 17.3295 17.3295C16.0038 18.6553 14.3939 19.3182 12.5 19.3182Z" fill="white"/>
</svg>
