<svg width="35" height="35" viewBox="0 0 35 35" fill="none" xmlns="http://www.w3.org/2000/svg">
<path d="M16.3636 9.54545V5H18.6364V9.54545H16.3636ZM23.9205 12.6705L22.358 11.108L25.5398 7.84091L27.1307 9.46023L23.9205 12.6705ZM25.4545 18.6364V16.3636H30V18.6364H25.4545ZM16.3636 30V25.4545H18.6364V30H16.3636ZM11.0795 12.6136L7.84091 9.46023L9.46023 7.86932L12.6705 11.0795L11.0795 12.6136ZM25.5114 27.1591L22.358 23.892L23.892 22.358L27.1307 25.483L25.5114 27.1591ZM5 18.6364V16.3636H9.54545V18.6364H5ZM9.46023 27.1591L7.86932 25.5398L11.0511 22.358L11.875 23.125L12.6989 23.9205L9.46023 27.1591ZM17.5 24.3182C15.6061 24.3182 13.9962 23.6553 12.6705 22.3295C11.3447 21.0038 10.6818 19.3939 10.6818 17.5C10.6818 15.6061 11.3447 13.9962 12.6705 12.6705C13.9962 11.3447 15.6061 10.6818 17.5 10.6818C19.3939 10.6818 21.0038 11.3447 22.3295 12.6705C23.6553 13.9962 24.3182 15.6061 24.3182 17.5C24.3182 19.3939 23.6553 21.0038 22.3295 22.3295C21.0038 23.6553 19.3939 24.3182 17.5 24.3182Z" fill="white"/>
</svg>
